Coordinates
version=1
nRows=8
nColumns=36
inDegrees=yes

Units are S.I. units (second, meters, Newtons, ...)
If the header above contains a line with 'inDegrees', this indicates whether rotational values are in degrees (yes) or radians (no).

endheader
time	pelvis_tilt	pelvis_list	pelvis_rotation	pelvis_tx	pelvis_ty	pelvis_tz	hip_flexion_r	hip_adduction_r	hip_rotation_r	knee_angle_r	knee_angle_r_beta	ankle_angle_r	subtalar_angle_r	mtp_angle_r	hip_flexion_l	hip_adduction_l	hip_rotation_l	knee_angle_l	knee_angle_l_beta	ankle_angle_l	subtalar_angle_l	mtp_angle_l	lumbar_extension	lumbar_bending	lumbar_rotation	arm_flex_r	arm_add_r	arm_rot_r	elbow_flex_r	pro_sup_r	arm_flex_l	arm_add_l	arm_rot_l	elbow_flex_l	pro_sup_l
      0.00000000	      2.02234154	     -1.06342516	      1.98663891	     -0.99121423	      1.27912002	     -0.06806694	      1.61259709	     -1.62017593	     -0.09717457	     12.86424521	      0.22452343	      9.64756133	    -10.29258616	     -5.72266258	      4.70502191	     -3.47763302	     -2.25526162	     15.48634089	      0.27028764	     14.20446449	     -1.81609931	     -5.72266258	     -7.74895844	      2.03497193	     -2.21407479	      4.98182518	     -8.06535530	     15.45427097	     27.02319479	     75.19733088	      2.41625721	     -8.32864858	     19.35109595	     30.67556598	     68.92328476
      0.00416670	      0.64204628	     -0.72577629	      1.59131741	     -0.98994517	      1.27850440	     -0.06782568	      3.77739166	     -1.74064003	      0.86401395	     14.00496520	      0.24443275	     12.38995310	     -9.97632370	     -6.40518910	      6.74046458	     -2.64643888	     -1.16230274	     16.44536950	      0.28702584	     13.97549765	     -2.06520567	     -6.40518910	     -5.36909732	      1.77986676	     -1.97347846	      3.96750087	     -7.29860298	     10.41289113	     27.81379477	     79.50698087	      1.98035555	     -7.64669529	     17.69808211	     29.93867856	     72.03847596
      0.00833330	     -0.40417620	     -0.06947207	      1.10390213	     -0.98816049	      1.27639043	     -0.06680778	      4.69274349	     -2.48241099	      0.53390662	     13.57768469	      0.23697530	     12.41599574	     -9.97668119	     -6.47751934	      7.68151319	     -2.02571746	     -1.26656135	     16.29976640	      0.28448459	     13.68857179	     -2.07590107	     -6.47751934	     -3.82575872	      0.78804260	     -1.85576606	      3.49913727	     -6.72734891	      9.54228499	     28.40339037	     78.51450492	      1.56548166	     -7.91600530	     17.31362355	     30.02851581	     71.43814093
      0.01250000	     -0.37418971	      0.29157383	      0.78745047	     -0.98757794	      1.27688359	     -0.06598168	      4.74348191	     -2.91619620	      0.57099462	     13.67526744	      0.23867844	     12.63795792	     -9.83689975	     -6.56090846	      7.36871768	     -1.63884556	     -0.92075251	     16.01283778	      0.27947674	     13.60737389	     -2.72762911	     -6.56090846	     -3.70949416	      0.29182291	     -1.37671466	      3.24720685	     -6.20551717	      7.74211432	     28.36402915	     77.69508589	      1.76801619	     -7.96753349	     16.98447195	     29.32611450	     71.17794013
      0.01666670	     -0.58200516	      0.49040857	      0.64246846	     -0.98723096	      1.27780975	     -0.06595574	      4.87039769	     -3.10447657	      0.48040501	     13.46877655	      0.23507450	     12.56653279	     -9.64360079	     -6.65939511	      7.36729494	     -1.41256952	     -0.69716555	     15.65448094	      0.27322224	     13.40160264	     -3.20796811	     -6.65939511	     -3.38233814	      0.06537795	     -1.03248308	      2.76420635	     -6.06086676	      6.99415326	     29.03425697	     76.87095545	      1.70135005	     -8.09649373	     17.32037683	     29.40695544	     70.94469046
      0.02083330	     -0.65949494	      0.67383696	      0.58429396	     -0.98813926	      1.27836265	     -0.06542628	      4.88022694	     -3.22587022	      0.49150541	     13.21296714	      0.23060978	     12.35702104	     -9.55983306	     -6.71469107	      7.44160208	     -1.18150548	     -0.45516906	     15.62690485	      0.27274094	     13.28331928	     -3.55034297	     -6.71469107	     -3.22587589	     -0.10768101	     -0.73696073	      2.54019141	     -6.04988114	      6.88178978	     29.44121504	     76.20230256	      1.81591018	     -8.23950262	     17.97861656	     29.47549772	     70.79935211
      0.02500000	     -0.68414162	      0.72302319	      0.56625532	     -0.98762584	      1.27993312	     -0.06584848	      4.85012849	     -3.28450969	      0.41690665	     12.98095398	      0.22656039	     12.14906432	     -9.50191745	     -7.04225548	      7.43700336	     -1.10061656	     -0.35530383	     15.50000542	      0.27052613	     13.05858534	     -3.89207169	     -7.04225548	     -3.20038812	     -0.11283841	     -0.05840723	      2.00076223	     -6.12880153	      5.73482562	     30.12697930	     80.12246402	      2.41070643	     -8.39838157	     19.90523106	     29.11369724	     76.62511208
      0.02916670	     -0.82275409	      0.75335193	      0.64647775	     -0.98747920	      1.27690381	     -0.06520639	      4.91563760	     -3.29676338	      0.41378736	     12.71173366	      0.22186161	     11.79876097	     -9.54992048	     -7.08819114	      7.58953201	     -1.04458604	     -0.20012404	     15.52993008	      0.27104841	     12.87721680	     -4.23046288	     -7.08819114	     -3.03914237	     -0.11150355	     -0.02102358	      1.94442878	     -6.21769015	      6.18064601	     30.30612408	     79.39889167	      2.38452967	     -8.46675666	     20.17081048	     29.33917745	     76.08053735
